<svg width="120" height="120" viewBox="0 0 120 120" fill="none" xmlns="http://www.w3.org/2000/svg">
  <!-- Nube -->
  <path d="M95 65c0-11-9-20-20-20-1.1 0-2.2 0.1-3.2 0.3C69.3 35.1 60.3 28 50 28c-12.7 0-23 10.3-23 23 0 1 0.1 1.9 0.2 2.8C19.8 55.8 15 61.8 15 69c0 8.8 7.2 16 16 16h60c11 0 20-9 20-20z" 
    fill="#ffffff" 
    stroke="#000000" 
    stroke-width="2"
  />
  
  <!-- Globo (adaptado de globe.svg) -->
  <g transform="translate(40, 45) scale(0.7)">
    <circle cx="30" cy="30" r="20" 
      stroke="currentColor" 
      stroke-width="2" 
      fill="none"
    />
    <path d="M30 10C30 10 45 25 45 30C45 35 30 50 30 50" 
      stroke="currentColor" 
      stroke-width="2" 
      fill="none"
    />
    <path d="M30 10C30 10 15 25 15 30C15 35 30 50 30 50" 
      stroke="currentColor" 
      stroke-width="2" 
      fill="none"
    />
    <path d="M10 30L50 30" 
      stroke="currentColor" 
      stroke-width="2"
    />
    <path d="M15 20L45 20" 
      stroke="currentColor" 
      stroke-width="2"
    />
    <path d="M15 40L45 40" 
      stroke="currentColor" 
      stroke-width="2"
    />
  </g>
</svg> 